<svg version="1.0" xmlns="http://www.w3.org/2000/svg" width="1024px" height="683px" viewBox="0 0 1024 683" preserveAspectRatio="xMidYMid meet">
 <g fill="#000001">
  
  
  <path d="M522.09 333.62 c-1.48 -1.72 -1.31 -4.10 0.66 -12.80 1.97 -8.70 3.69 -11.08 10.42 -14.85 2.54 -1.48 9.11 -5.58 14.61 -9.11 9.85 -6.32 11.49 -6.89 16.66 -5.91 2.30 0.49 2.54 0.82 2.54 3.53 0 6.89 -0.98 11.41 -2.54 11.82 -0.90 0.25 -1.56 1.15 -1.56 2.13 0 0.98 -0.49 1.72 -1.07 1.72 -0.57 0 -3.04 2.05 -5.50 4.59 -4.43 4.51 -12.06 10.01 -18.87 13.46 -1.89 0.98 -4.35 2.71 -5.42 3.86 -2.38 2.54 -8.37 3.45 -9.93 1.56z" data-index="2" style="opacity: 1;"></path>
  <path d="M490.50 331.98 c-0.82 -1.07 -3.20 -2.79 -5.33 -3.86 -12.72 -6.15 -21.99 -13.05 -26.58 -19.86 -3.20 -4.84 -3.28 -5.09 -3.04 -11.16 l0.25 -6.24 3.12 -0.25 c2.05 -0.16 3.77 0.25 5.42 1.39 1.31 0.98 3.04 1.72 3.86 1.72 0.82 0 5.09 2.38 9.52 5.33 4.43 2.95 8.94 5.83 10.09 6.32 1.15 0.49 2.05 1.56 2.05 2.46 0 0.82 0.41 1.48 0.90 1.48 0.49 0 2.38 1.56 4.18 3.36 2.63 2.63 3.77 4.68 4.92 8.86 2.71 9.76 1.72 12.39 -4.43 12.39 -2.71 -0.08 -3.86 -0.49 -4.92 -1.97z m-6.40 -18.71 c-0.08 -1.31 -5.09 -4.59 -8.04 -5.33 l-2.22 -0.49 2.46 2.05 c1.97 1.64 6.65 4.59 7.63 4.76 0.08 0 0.16 -0.49 0.16 -0.98z" data-index="3" style="opacity: 1;"></path>
  <path d="M547.45 274.63 c-0.98 -2.30 -4.43 -7.79 -7.55 -12.06 -8.12 -10.99 -8.29 -10.26 5.09 -26.34 10.34 -12.31 11.08 -13.05 13.78 -13.05 1.56 0 3.28 0.33 3.77 0.66 1.23 0.82 2.38 26.17 1.15 26.58 -0.41 0.08 -0.98 3.04 -1.15 6.40 -0.49 7.71 -1.97 13.95 -3.36 13.95 -0.66 0 -1.31 0.98 -1.64 2.30 -0.74 3.45 -3.20 5.91 -5.91 5.91 -1.97 0 -2.54 -0.57 -4.18 -4.35z" data-index="4"></path>
  <path d="M465.31 275.86 c-3.04 -5.74 -6.65 -29.21 -6.65 -43.41 l0 -8.45 2.79 0 c1.48 0 3.61 0.66 4.68 1.48 1.07 0.82 2.63 1.81 3.45 2.05 0.74 0.33 1.64 1.07 1.89 1.81 0.25 0.66 2.13 2.95 4.10 5.09 8.62 9.27 12.64 14.77 12.64 17.31 0 1.72 -1.72 5.01 -6.15 11.24 -3.36 4.76 -6.56 10.01 -7.14 11.57 -0.90 2.63 -1.15 2.79 -4.92 2.79 -2.95 0 -4.10 -0.33 -4.68 -1.48z" data-index="5"></path>
 </g>
 <g fill="#f4191e">
  <path d="M631.22 441.60 c-0.98 -0.16 -2.13 -0.74 -2.63 -1.31 -0.66 -0.82 -0.25 -0.98 1.81 -0.74 l2.63 0.25 -2.54 -0.82 c-1.48 -0.49 -3.77 -2.13 -5.17 -3.69 -1.39 -1.56 -2.87 -2.87 -3.36 -2.87 -0.49 0 -0.82 -4.68 -0.82 -13.21 0 -7.55 0.33 -12.96 0.74 -12.72 0.41 0.25 0.90 -0.08 1.23 -0.74 0.33 -0.82 1.64 -1.23 4.10 -1.23 l3.69 0 0.25 12.39 c0.33 15.75 0.08 15.51 12.96 15.51 12.06 0 11.82 0.33 12.14 -15.67 l0.33 -12.23 4.02 0 4.02 0 0 13.87 c0 12.96 -0.08 13.95 -1.89 16.57 -3.12 4.84 -7.63 6.32 -19.45 6.65 -5.66 0.16 -11.08 0.16 -12.06 0z" data-index="6"></path>
  <path d="M359.30 439.22 c-1.23 -1.39 -1.31 -3.45 -0.90 -21.99 l0.16 -10.67 2.22 -0.98 c1.23 -0.57 3.77 -1.07 5.74 -1.07 3.28 0 3.69 0.25 6.65 4.35 1.72 2.30 5.33 7.47 7.96 11.49 2.63 3.94 5.09 7.06 5.50 6.97 0.41 -0.16 4.18 -5.25 8.37 -11.32 l7.63 -11.08 5.66 0 5.66 0 0 16.98 c0 10.83 0.33 17.07 0.82 17.07 0.49 0 0.25 0.41 -0.41 0.82 -1.81 1.15 -8.70 0.98 -9.68 -0.25 -0.49 -0.57 -0.98 -4.35 -1.07 -8.37 -0.08 -4.10 -0.25 -7.63 -0.41 -7.88 -0.16 -0.33 -1.15 -0.33 -2.13 -0.16 -1.31 0.25 -3.53 2.87 -7.06 8.12 -4.92 7.38 -5.33 7.79 -7.79 7.55 -2.22 -0.25 -3.20 -1.07 -6.15 -5.58 -1.89 -2.95 -4.02 -5.33 -4.59 -5.33 -0.57 0 -1.72 -0.49 -2.46 -1.15 -1.89 -1.56 -2.38 -0.82 -2.79 4.59 -0.25 2.63 -0.90 5.25 -1.56 5.91 -0.90 0.82 -0.90 1.31 -0.25 1.72 1.39 0.82 -1.07 1.64 -4.92 1.64 -1.89 0 -3.53 -0.49 -4.18 -1.39z" data-index="7" style="opacity: 1;"></path>
  <path d="M434.30 439.63 c-1.23 -1.48 -1.23 -2.30 -1.15 -18.95 0.08 -8.37 0.41 -14.44 0.82 -14.19 0.41 0.25 0.98 -0.08 1.23 -0.82 0.33 -0.90 1.48 -1.15 4.35 -0.98 l3.94 0.25 0 17.64 0 17.64 -4.18 0.25 c-2.71 0.16 -4.51 -0.16 -5.01 -0.82z" data-index="8"></path>
  <path d="M465.39 440.04 c-0.49 -0.16 -0.82 -0.74 -0.57 -1.15 0.33 -0.41 -0.08 -0.49 -0.74 -0.25 -1.56 0.57 -1.48 1.64 -1.72 -15.10 l-0.25 -13.46 2.46 -2.79 c2.13 -2.38 3.04 -2.79 5.99 -2.79 1.97 0 3.86 -0.33 4.10 -0.82 0.25 -0.41 0.98 -0.82 1.64 -0.82 1.23 0 14.77 15.34 14.77 16.74 0 0.49 0.57 0.90 1.23 0.90 0.66 0.08 1.15 0.49 1.07 0.98 -0.25 1.07 2.38 0.98 3.20 -0.16 0.33 -0.41 0.66 -1.89 0.66 -3.12 0 -1.31 0.33 -2.13 0.82 -1.81 0.41 0.25 0.82 -1.97 0.98 -5.50 l0.25 -5.99 3.94 -0.25 3.86 -0.25 -0.16 17.07 -0.25 17.07 -3.61 0.25 -3.61 0.25 -9.52 -9.35 c-7.22 -7.14 -10.01 -9.35 -11.41 -9.27 -2.87 0.25 -3.36 1.72 -2.87 8.37 0.57 7.06 -0.08 10.50 -1.89 9.85 -0.66 -0.25 -1.07 -0.16 -0.82 0.25 0.90 1.39 -4.76 2.30 -7.55 1.15z" data-index="9" style="opacity: 1;"></path>
  <path d="M566.32 438.97 c-2.95 -0.66 -7.55 -4.51 -7.55 -6.32 0 -0.57 -0.57 -1.07 -1.23 -1.07 -0.98 0 -1.23 -1.48 -1.23 -8.70 0 -4.76 0.33 -8.45 0.66 -8.21 0.41 0.25 1.07 -1.23 1.64 -3.20 1.64 -6.15 2.87 -6.48 21.66 -6.81 18.13 -0.33 19.04 -0.16 21.74 5.01 1.07 1.97 1.39 4.84 1.39 12.23 0.08 10.42 -0.49 11.98 -5.58 15.75 -2.05 1.56 -3.53 1.72 -15.51 1.89 -7.30 0.08 -14.52 -0.16 -16 -0.57z m26.58 -8.29 c2.30 -2.63 2.30 -15.34 -0.08 -17.97 -1.56 -1.72 -2.13 -1.81 -12.39 -1.48 -7.47 0.16 -11.24 0.66 -12.14 1.39 -1.64 1.39 -1.89 15.43 -0.25 17.48 1.56 1.97 2.71 2.13 13.37 2.22 9.11 0.08 10.01 -0.08 11.49 -1.64z" data-index="10" style="opacity: 1;"></path>
  <path d="M528.98 438.48 c-0.33 -0.33 -0.57 -8.12 -0.57 -17.31 l0 -16.66 4.10 0 4.10 0 -0.16 17.07 -0.25 16.98 -3.28 0.25 c-1.89 0.16 -3.61 0 -3.94 -0.33z" data-index="11"></path>
  <path d="M506.75 374.56 c-4.68 -1.64 -7.47 -4.76 -12.96 -14.52 -2.71 -4.92 -5.33 -8.86 -5.74 -8.86 -0.49 0 -0.57 0.41 -0.16 1.07 0.66 1.07 -0.90 -0.74 -5.17 -5.91 -1.56 -1.89 -1.72 -1.97 -1.39 -0.41 0.33 1.31 0 1.89 -1.48 2.30 -1.56 0.41 -2.54 -0.25 -5.74 -3.77 -2.05 -2.38 -4.43 -4.35 -5.25 -4.35 -1.64 0 -4.02 -4.02 -3.20 -5.33 0.25 -0.49 1.31 -0.82 2.30 -0.82 1.48 0 1.31 -0.33 -1.31 -2.22 -1.81 -1.23 -2.79 -2.38 -2.30 -2.54 0.49 -0.16 0.66 -0.74 0.33 -1.23 -0.33 -0.57 0.74 0 2.38 1.31 3.36 2.46 5.09 3.04 2.63 0.74 -4.10 -3.77 -11.90 -9.35 -12.31 -8.94 -0.74 0.66 -6.48 -3.36 -10.75 -7.47 -4.59 -4.43 -5.17 -6.81 -6.40 -26.01 -0.25 -3.61 -0.66 -9.76 -0.90 -13.78 -0.41 -5.99 -0.25 -7.22 0.82 -7.63 0.98 -0.33 1.15 -1.23 0.90 -3.45 -0.33 -2.38 -0.25 -2.71 0.41 -1.56 0.49 0.74 1.23 1.39 1.72 1.39 0.41 0 -0.16 -1.39 -1.31 -3.04 -1.15 -1.81 -2.05 -4.27 -2.05 -5.83 0 -1.48 -0.33 -2.54 -0.74 -2.30 -0.98 0.66 -1.56 -3.12 -2.13 -13.87 -0.25 -4.92 -0.82 -15.51 -1.23 -23.38 -0.41 -7.88 -0.98 -20.76 -1.31 -28.47 l-0.57 -14.19 2.38 0 c1.56 0 2.79 0.57 3.45 1.72 0.66 0.98 1.56 1.48 2.30 1.23 0.74 -0.25 2.05 0.33 3.04 1.48 0.98 1.07 3.53 3.77 5.74 5.99 2.13 2.22 3.86 4.43 3.86 4.92 0 1.07 3.53 4.35 4.76 4.35 0.49 0 1.15 0.90 1.48 1.97 0.25 1.07 1.31 2.79 2.46 3.86 1.07 0.98 1.72 2.13 1.39 2.63 -0.25 0.49 -0.08 0.57 0.33 0.33 1.15 -0.74 6.15 5.01 5.50 6.15 -0.33 0.49 -0.25 0.66 0.25 0.41 0.49 -0.33 6.07 4.92 12.39 11.57 13.21 13.87 15.10 16.08 14.28 16.98 -0.33 0.41 -0.16 0.41 0.41 0.08 0.90 -0.49 2.30 0.82 2.30 2.22 0 0.33 0.33 0.57 0.66 0.49 0.33 0 1.89 1.07 3.45 2.46 1.48 1.31 3.53 2.63 4.43 2.95 1.39 0.41 1.56 0.82 0.90 2.54 -0.49 1.15 -0.82 2.71 -0.74 3.45 0.08 0.82 0.33 0.57 0.66 -0.66 l0.57 -2.05 0.66 2.30 c0.49 1.97 0.74 2.22 1.72 1.39 0.66 -0.57 1.23 -0.74 1.23 -0.33 0.08 0.41 0.57 -0.41 1.15 -1.72 0.57 -1.39 6.97 -8.78 14.19 -16.41 7.14 -7.71 22.40 -24.12 33.81 -36.51 11.49 -12.39 21.50 -22.65 22.32 -22.81 1.81 -0.33 1.81 -1.23 0.74 15.43 -0.41 6.97 -1.31 25.44 -2.13 41.03 l-1.31 28.31 -10.34 13.95 c-5.66 7.71 -9.44 13.21 -8.37 12.31 1.07 -0.90 4.59 -5.33 7.88 -9.76 3.94 -5.33 6.65 -8.29 7.88 -8.45 1.72 -0.25 1.72 -0.25 0.25 1.39 -1.48 1.64 -1.48 1.64 0.41 1.64 1.56 0 1.72 0.33 1.23 2.30 -0.82 3.12 -1.97 21.09 -2.05 30.52 l0 7.88 -3.86 3.77 c-2.22 2.05 -6.32 5.50 -9.27 7.63 -4.02 2.87 -5.25 4.27 -5.17 5.58 0.25 1.72 -1.07 3.04 -8.37 8.37 -1.56 1.15 -1.56 1.15 1.07 1.23 1.39 0 2.63 0.25 2.63 0.66 0 0.90 -1.64 3.12 -1.64 2.30 0 -0.49 -1.07 0.25 -2.46 1.56 -2.38 2.22 -3.36 4.35 -1.64 3.28 0.49 -0.33 0.41 0.41 -0.16 1.56 -0.49 1.15 -1.39 2.13 -2.05 2.13 -0.57 0 -1.07 0.33 -1.07 0.74 0 0.41 -0.66 0.66 -1.39 0.57 -0.82 0 -1.48 0.49 -1.48 1.15 0 0.66 -0.66 1.31 -1.56 1.48 -1.31 0.25 -1.48 -0.08 -1.15 -2.22 0.25 -1.48 0.08 -2.79 -0.33 -3.04 -0.41 -0.25 -0.49 -0.90 -0.16 -1.39 1.39 -2.63 -4.27 4.76 -8.37 11.08 -2.63 3.94 -5.09 6.89 -5.42 6.73 -0.41 -0.25 -1.39 1.23 -2.30 3.20 -0.98 2.22 -3.28 5.09 -5.66 7.06 -4.43 3.69 -7.06 4.18 -12.72 2.13z m22.24 -44.47 c0.25 -0.57 2.13 -2.05 4.27 -3.28 10.58 -5.99 15.75 -9.68 20.51 -14.52 2.95 -2.95 5.66 -5.09 6.07 -4.84 0.49 0.33 0.57 0.08 0.25 -0.49 -0.66 -1.07 1.81 -4.43 2.71 -3.77 0.33 0.16 0.57 -0.33 0.66 -1.07 0 -0.74 0.33 -2.95 0.66 -4.76 0.57 -3.28 0.49 -3.36 -1.72 -3.86 -1.97 -0.33 -4.10 0.66 -12.23 5.91 -5.42 3.53 -11.98 7.55 -14.52 9.03 -2.54 1.39 -5.58 3.69 -6.73 5.01 -2.46 3.04 -5.74 16.16 -4.35 17.64 1.15 1.23 3.86 0.57 4.43 -0.98z m-31.18 0.08 c0.57 -0.57 0.90 -1.48 0.74 -2.13 -0.25 -0.57 -0.98 -3.20 -1.72 -5.83 -0.74 -2.63 -1.64 -4.51 -2.05 -4.27 -0.41 0.25 -0.90 -0.33 -1.23 -1.23 -0.25 -0.90 -1.48 -2.38 -2.63 -3.28 -2.38 -1.81 -4.84 -2.22 -3.77 -0.57 0.66 1.07 0.74 1.31 1.56 5.01 0.49 2.13 0.41 2.30 -1.39 1.72 -3.77 -1.23 -11.98 -6.24 -15.34 -9.27 -3.69 -3.45 -4.59 -6.73 -1.89 -6.73 0.90 0 1.81 0.33 2.05 0.74 0.25 0.41 1.23 0.57 2.13 0.33 0.90 -0.25 1.39 -0.74 1.15 -1.15 -0.25 -0.41 0 -0.74 0.41 -0.74 0.49 0 0.90 0.33 0.90 0.66 0 0.41 0.98 1.23 2.30 1.89 1.23 0.57 3.12 1.72 4.18 2.54 1.07 0.82 2.54 1.48 3.28 1.48 0.74 0 -0.16 -0.90 -1.97 -1.89 -1.81 -1.07 -6.48 -4.02 -10.34 -6.56 -3.86 -2.54 -7.38 -4.68 -7.79 -4.68 -0.41 0.08 0.16 0.57 1.31 1.23 1.15 0.66 1.64 1.15 1.23 1.23 -0.49 0 -2.79 -1.31 -5.17 -2.87 -2.38 -1.64 -4.68 -2.71 -5.09 -2.46 -0.49 0.33 -0.74 2.13 -0.66 4.10 0.16 1.89 0.49 3.36 0.74 3.20 0.33 -0.16 0.82 0.25 1.07 0.98 0.33 0.82 0.16 1.07 -0.49 0.66 -1.89 -1.15 2.38 5.01 5.99 8.70 4.51 4.51 10.26 8.45 19.53 13.21 3.77 1.97 7.47 4.35 8.12 5.33 1.48 1.89 3.36 2.22 4.84 0.66z m-46.52 -14.52 c0 -0.08 -1.72 -1.64 -3.86 -3.36 l-3.94 -3.12 3.45 3.36 c3.04 2.95 4.35 3.94 4.35 3.12z m104.94 -48 c0.90 -2.79 1.72 -5.74 1.81 -6.56 0 -1.15 0.16 -1.15 0.74 0.25 0.49 1.07 0.57 0.41 0.25 -1.97 -0.41 -2.87 -0.25 -3.45 0.57 -2.95 0.74 0.41 0.90 0.33 0.49 -0.25 -0.33 -0.49 -0.25 -3.77 0.08 -7.30 0.49 -5.25 0.66 -5.91 1.07 -3.53 0.33 1.56 0.33 -1.89 0.16 -7.79 -0.33 -9.60 -0.82 -11.82 -2.63 -11.90 -0.25 0 -5.33 5.91 -11.41 13.21 l-10.99 13.21 1.97 2.54 c7.14 9.68 10.58 14.85 11.90 18.05 1.48 3.61 1.48 3.61 2.87 1.89 0.74 -0.90 2.13 -4.02 3.12 -6.89z m-83.77 4.43 c0.57 -1.56 3.77 -6.81 7.22 -11.65 l6.07 -8.70 -3.04 -3.86 c-5.99 -7.22 -11.90 -13.62 -12.72 -13.62 -0.49 0 -1.39 -0.90 -2.05 -2.05 -1.15 -1.89 -1.15 -1.97 0.08 -0.49 0.74 0.90 1.31 1.23 1.31 0.74 0 -0.49 -0.57 -1.31 -1.23 -1.89 -0.66 -0.57 -1.23 -0.74 -1.23 -0.41 0 0.33 -1.23 -0.49 -2.63 -1.72 l-2.71 -2.22 -0.25 5.66 c-0.49 10.42 3.53 35.94 6.48 41.52 1.31 2.46 3.61 1.81 4.68 -1.31z" data-index="12" style="opacity: 1;"></path>
  <path d="M532.84 317.78 c0.33 -1.31 1.64 -3.28 2.87 -4.43 5.09 -4.76 17.31 -10.67 17.31 -8.53 0 1.39 -2.79 5.42 -5.01 7.30 -2.79 2.38 -13.13 7.88 -14.77 7.88 -0.57 0 -0.74 -0.82 -0.41 -2.22z" data-index="13" style="opacity: 1;"></path>
  <path d="M521.85 372.27 c0 -0.16 0.90 -1.48 2.05 -3.04 1.15 -1.56 2.05 -2.22 2.05 -1.56 -0.08 1.64 -4.10 6.24 -4.10 4.59z" data-index="14"></path>
  <path d="M471.06 342.65 l-1.97 -2.54 2.30 2.22 c1.31 1.23 2.22 2.38 1.97 2.54 -0.16 0.25 -1.23 -0.82 -2.30 -2.22z" data-index="15"></path>
 </g>
 <g fill="#0b0001">
  <path d="M631.22 441.60 c-0.98 -0.16 -2.13 -0.74 -2.54 -1.23 -0.66 -0.74 2.54 -0.90 13.62 -0.74 8.78 0.16 13.87 0.57 12.80 0.98 -1.72 0.66 -20.51 1.48 -23.88 0.98z" data-index="16"></path>
  <path d="M359.30 439.22 c-1.23 -1.39 -1.31 -3.28 -0.90 -22.15 0.25 -17.23 1.72 -13.37 1.97 5.33 l0.25 16.16 4.51 0.41 c3.12 0.25 4.02 0.57 3.04 1.07 -2.71 1.07 -7.71 0.66 -8.86 -0.82z" data-index="17"></path>
  <path d="M404.68 439.55 c-0.49 -0.49 -0.98 -4.51 -1.15 -8.78 -0.25 -7.63 -0.25 -7.79 -2.22 -7.55 -2.05 0.33 -1.97 0.08 0.90 -4.10 0.90 -1.31 1.97 -2.30 2.38 -2.30 0.49 0 0.74 4.18 0.57 11.08 l-0.25 11.08 5.33 0 c3.77 0 5.01 0.25 4.10 0.82 -1.81 1.15 -8.70 0.98 -9.68 -0.25z" data-index="18"></path>
  <path d="M434.22 439.63 c-1.15 -1.48 -1.15 -2.30 -1.07 -19.04 0.08 -10.26 0.33 -14.52 0.90 -13.95 0.57 0.57 0.82 6.48 0.66 16.57 -0.16 8.62 -0.08 15.59 0.16 15.59 3.69 -0.25 9.03 0.33 8.62 0.98 -0.74 1.15 -8.29 0.98 -9.27 -0.16z" data-index="19"></path>
  <path d="M464.82 439.63 c-0.90 -0.49 -1.81 -1.07 -1.97 -1.23 -0.25 -0.16 -0.49 -6.48 -0.57 -14.11 -0.16 -10.83 0.08 -14.28 0.98 -15.43 0.90 -1.31 1.15 0.57 1.23 13.70 0.08 8.37 0.08 15.43 0 15.84 0 0.33 1.97 0.57 4.43 0.57 l4.51 0 0 -10.67 0 -10.67 2.38 0 c2.54 0 4.84 1.97 3.36 2.87 -0.41 0.25 -1.15 0.33 -1.56 0 -1.56 -0.90 -2.38 2.54 -1.97 8.29 0.25 3.20 0.25 6.81 0 7.88 -0.90 3.36 -7.06 5.09 -10.83 2.95z" data-index="20" style="opacity: 1;"></path>
  <path d="M368.25 431.18 c-0.08 -2.95 -0.16 -6.32 -0.16 -7.55 -0.08 -1.89 0.33 -2.38 1.97 -2.54 1.56 -0.16 2.46 0.49 3.94 2.71 2.13 3.28 1.64 5.42 -0.66 3.28 -1.39 -1.31 -1.56 -1.23 -2.38 0.33 -0.49 0.90 -0.90 3.28 -0.90 5.33 0 5.83 -1.64 4.43 -1.81 -1.56z" data-index="21"></path>
  <path d="M621.13 419.20 c0 -8.53 0.25 -12.96 0.82 -12.64 0.49 0.33 0.82 5.58 0.82 13.21 0 7.88 -0.33 12.64 -0.82 12.64 -0.49 0 -0.82 -4.92 -0.82 -13.21z" data-index="22"></path>
  <path d="M556.31 422.89 c0 -5.50 0.33 -8.45 0.82 -8.12 0.49 0.25 0.82 4.10 0.82 8.70 0 4.84 -0.33 8.12 -0.82 8.12 -0.49 0 -0.82 -3.45 -0.82 -8.70z" data-index="23"></path>
  <path d="M495.18 424.12 c-1.81 -1.97 -7.22 -7.38 -12.06 -12.06 -6.81 -6.56 -8.45 -8.53 -7.38 -8.94 0.90 -0.41 2.63 0.90 5.91 4.76 2.46 2.87 6.65 7.47 9.27 10.17 5.09 5.17 6.32 5.25 6.32 0.08 0 -1.72 0.25 -2.22 0.90 -1.56 0.41 0.41 0.74 3.12 0.57 5.99 l-0.25 5.17 -3.28 -3.61z" data-index="24"></path>
  <path d="M522.26 370.87 c0.08 -1.64 2.05 -4.27 2.05 -2.79 0 0.41 0.41 0.16 0.82 -0.49 0.74 -1.07 0.82 -1.07 0.82 0 -0.08 1.15 -2.71 4.92 -3.45 4.92 -0.25 0 -0.33 -0.74 -0.25 -1.64z" data-index="25"></path>
  <path d="M506.99 367.67 c-2.87 -2.30 -1.07 -3.61 5.42 -4.02 5.99 -0.41 6.56 0.33 3.28 3.53 -2.38 2.46 -6.07 2.63 -8.70 0.49z" data-index="26"></path>
  <path d="M527.59 362.17 c0 -0.49 0.25 -1.15 0.57 -1.48 0.33 -0.25 0.66 -0.98 0.74 -1.56 0.41 -2.38 10.42 -19.20 12.47 -20.92 1.23 -1.07 4.43 -3.45 7.14 -5.25 2.71 -1.89 6.32 -4.59 7.96 -5.99 3.86 -3.20 5.42 -3.36 5.01 -0.49 -0.74 4.76 -1.15 5.83 -3.69 8.78 -2.30 2.71 -3.12 3.20 -5.50 2.95 -3.12 -0.33 -4.51 0.90 -7.55 6.65 -1.15 2.30 -1.39 3.45 -0.82 4.18 0.98 1.23 0.41 2.13 -1.39 2.13 -0.82 0 -1.07 -0.66 -0.82 -2.46 0.25 -1.39 0.08 -2.71 -0.33 -2.95 -1.15 -0.74 -3.04 1.23 -7.96 8.62 -6.24 9.35 -5.83 8.86 -5.83 7.79z" data-index="27" style="opacity: 1;"></path>
  <path d="M485.50 349.87 c-1.39 -2.05 -2.71 -3.28 -2.87 -2.87 -0.33 1.07 -4.27 1.23 -4.27 0.16 0 -1.81 -6.81 -10.75 -8.21 -10.75 -2.63 0 -2.54 1.31 0.41 4.76 3.86 4.43 3.61 4.68 -0.82 0.49 -2.05 -1.89 -3.69 -3.69 -3.69 -4.02 0 -0.33 -1.15 -1.89 -2.46 -3.45 -2.05 -2.30 -2.38 -3.12 -1.56 -4.02 0.49 -0.66 1.48 -1.15 2.13 -1.15 0.66 0 0.90 -0.41 0.57 -0.90 -0.25 -0.49 0.41 -0.33 1.48 0.41 1.15 0.74 2.30 1.07 2.63 0.74 0.33 -0.41 0.49 -0.08 0.33 0.57 -0.16 0.66 0.33 1.23 0.98 1.23 1.72 0 9.19 5.58 11.90 8.78 2.54 3.04 6.48 10.50 5.83 11.16 -0.25 0.25 -0.08 0.90 0.41 1.56 0.49 0.57 0.74 1.07 0.41 1.07 -0.33 0 -1.72 -1.64 -3.20 -3.77z" data-index="28"></path>
  <path d="M501.33 347.08 c-1.39 -2.63 -6.56 -15.10 -6.56 -15.84 0 -0.33 0.41 -0.41 0.90 -0.08 0.49 0.25 1.23 0 1.64 -0.57 0.98 -1.72 1.64 -0.49 2.95 5.58 2.71 12.80 2.87 14.19 1.07 10.91z" data-index="29"></path>
  <path d="M520.21 347.41 c0.08 -2.63 3.04 -15.92 3.69 -16.57 0.33 -0.33 0.82 -0.16 0.98 0.41 0.16 0.57 0.90 0.74 1.56 0.49 1.56 -0.57 1.64 -0.82 -2.13 8.37 -3.53 8.70 -4.10 9.76 -4.10 7.30z" data-index="30"></path>
  <path d="M546.13 347.98 c-0.74 -1.15 2.22 -4.76 3.94 -4.76 0.90 0 0.98 0.41 0.25 1.97 -0.41 1.07 -1.31 1.89 -1.89 1.89 -0.57 0 -1.15 0.41 -1.31 0.98 -0.25 0.74 -0.49 0.74 -0.98 -0.08z" data-index="31" style="opacity: 1;"></path>
  <path d="M452.76 318.77 c-9.11 -6.65 -10.83 -9.60 -11.73 -20.10 -0.16 -2.95 -0.57 -7.71 -0.82 -10.67 -1.07 -12.96 -1.15 -22.97 -0.08 -23.96 0.57 -0.57 0.90 -1.72 0.66 -2.63 -0.33 -1.23 0.33 -0.90 2.46 1.23 3.04 3.04 13.62 16.98 15.34 20.35 2.05 3.77 -2.05 0.33 -8.62 -7.30 -3.53 -4.02 -6.89 -7.38 -7.55 -7.38 -0.98 0 -1.07 1.07 -0.74 5.58 0.33 3.04 0.74 9.93 0.98 15.34 1.07 20.76 0.90 20.10 3.45 22.73 1.23 1.31 3.61 3.12 5.17 4.02 4.10 2.13 6.89 4.51 6.07 5.09 -0.41 0.25 -2.46 -0.82 -4.59 -2.30z" data-index="32"></path>
  <path d="M493.54 316.72 c-0.57 -1.89 -4.27 -4.92 -5.99 -4.92 -0.98 0 -0.98 0.25 -0.16 1.23 1.56 1.89 0.57 1.48 -3.77 -1.48 -2.22 -1.48 -5.50 -3.53 -7.30 -4.59 -2.46 -1.56 -2.95 -2.13 -1.81 -2.38 0.74 -0.16 1.23 -0.66 0.98 -1.07 -0.33 -0.41 -0.08 -0.74 0.33 -0.74 0.49 0 0.90 0.33 0.90 0.66 0 0.41 0.98 1.23 2.30 1.89 1.23 0.57 3.12 1.72 4.18 2.54 1.07 0.82 2.71 1.48 3.53 1.48 3.45 0 10.26 7.22 8.12 8.62 -0.41 0.25 -0.98 -0.33 -1.31 -1.23z" data-index="33" style="opacity: 1;"></path>
  <path d="M556.06 309.83 c4.35 -4.68 7.06 -8.37 7.63 -10.26 1.23 -4.43 1.07 -5.83 -0.74 -5.83 -0.90 0 -1.81 -0.33 -2.05 -0.74 -0.57 -0.90 1.39 -1.72 4.18 -1.72 2.05 0 2.13 0.16 1.56 3.86 -0.74 5.25 -8.29 15.59 -14.69 20.10 -1.48 0.98 0.41 -1.48 4.10 -5.42z" data-index="34"></path>
  <path d="M493.95 304.74 c-3.04 -2.13 -4.59 -4.43 -5.01 -7.71 -0.25 -1.56 0 -2.05 1.23 -2.05 1.07 0 2.46 1.64 4.35 5.09 1.56 2.87 2.71 5.50 2.54 5.91 -0.08 0.41 -1.56 -0.16 -3.12 -1.23z" data-index="35" style="opacity: 1;"></path>
  <path d="M524.31 304.74 c2.05 -5.25 5.09 -9.35 6.97 -9.35 1.97 0 1.97 0 0.82 3.77 -0.57 2.05 -1.23 3.86 -1.39 3.94 -0.98 0.74 -6.56 3.77 -6.81 3.77 -0.25 0 0 -0.98 0.41 -2.13z" data-index="36" style="opacity: 1;"></path>
  <path d="M458.34 301.05 c-1.39 -1.64 -3.12 -9.27 -2.30 -10.17 0.98 -0.98 2.95 -0.25 6.97 2.46 2.30 1.56 3.86 2.87 3.45 2.87 -0.49 0.08 0.08 0.57 1.23 1.23 1.15 0.66 1.64 1.15 1.23 1.23 -0.49 0 -2.79 -1.31 -5.17 -2.87 -2.38 -1.64 -4.68 -2.71 -5.09 -2.46 -1.15 0.74 -0.98 3.28 0.33 6.56 1.39 3.36 1.39 3.45 -0.66 1.15z" data-index="37"></path>
  <path d="M565.01 282.26 c1.39 -1.56 4.84 -5.99 7.63 -9.76 3.61 -5.09 5.58 -7.06 7.06 -7.22 1.89 -0.25 2.05 0 2.05 2.63 0 2.71 -0.16 2.87 -2.63 2.95 -2.13 0 -3.28 0.74 -5.58 3.45 -1.56 1.89 -4.68 5.09 -6.97 7.14 -3.20 2.79 -3.53 3.04 -1.56 0.82z" data-index="38"></path>
  <path d="M467.04 275.53 c-4.18 -11.32 -6.73 -26.42 -7.71 -46.19 -0.25 -4.51 -0.08 -4.92 1.48 -5.17 1.31 -0.16 2.54 0.82 4.92 4.10 1.72 2.38 3.53 4.59 3.94 4.92 0.49 0.33 0.66 0.74 0.41 0.98 -0.25 0.25 -1.64 -0.98 -3.12 -2.79 -1.39 -1.81 -3.36 -3.69 -4.35 -4.18 l-1.72 -0.90 0.49 10.09 c0.98 19.12 4.84 37.42 8.04 38.24 1.23 0.33 1.48 0.90 1.07 2.22 -0.98 3.36 -1.81 3.04 -3.45 -1.31z" data-index="39"></path>
  <path d="M552.21 277.17 c0 -0.98 0.49 -2.38 1.15 -3.04 3.36 -3.94 6.89 -20.59 7.63 -36.51 0.41 -9.44 0.33 -10.58 -0.90 -11.32 -1.07 -0.66 -1.23 -1.07 -0.41 -1.97 0.49 -0.66 1.64 -1.15 2.38 -1.15 1.39 0 1.48 0.66 1.07 8.04 -0.16 4.35 -0.66 9.11 -1.07 10.42 -0.41 1.39 -0.74 4.76 -0.74 7.63 0 2.87 -0.41 5.66 -0.82 6.24 -0.49 0.57 -0.66 1.31 -0.33 1.56 0.25 0.33 0.08 1.39 -0.41 2.46 -0.49 0.98 -1.64 4.76 -2.54 8.37 -1.97 8.12 -3.12 11.08 -4.18 11.08 -0.41 0 -0.82 -0.82 -0.82 -1.81z" data-index="40"></path>
  <path d="M510.93 264.70 c-0.33 -0.90 -0.90 -5.09 -1.15 -9.35 l-0.49 -7.71 -4.02 -3.69 c-2.13 -2.05 -3.94 -4.18 -3.94 -4.68 0 -0.49 -1.31 -2.05 -2.95 -3.36 -1.64 -1.39 -8.37 -8.37 -15.02 -15.51 -6.56 -7.14 -13.37 -14.36 -15.02 -15.92 -1.72 -1.56 -3.12 -3.12 -3.12 -3.36 0 -0.25 -3.94 -4.51 -8.70 -9.52 -11.41 -11.82 -15.34 -16.57 -14.28 -17.23 0.41 -0.25 1.64 0.41 2.63 1.48 1.07 1.07 3.61 3.86 5.83 6.07 2.13 2.22 3.86 4.43 3.86 4.92 0 1.07 3.53 4.35 4.68 4.35 0.57 0 1.23 0.82 1.56 1.89 0.25 0.98 2.63 4.02 5.17 6.73 10.50 11.24 29.54 31.51 34.38 36.59 2.87 3.04 6.32 5.99 7.63 6.48 1.31 0.57 2.13 1.31 1.89 1.72 -0.25 0.41 0 2.05 0.49 3.69 0.82 2.46 1.15 2.71 2.22 1.81 1.15 -0.98 1.23 -0.49 0.74 4.68 -0.33 3.20 -0.82 7.06 -1.15 8.62 -0.57 2.38 -0.74 2.63 -1.23 1.31z" data-index="41"></path>
  
 </g>
</svg>